/* XPM */
static char *racer[] = {
/* columns rows colors chars-per-pixel */
"32 32 54 1",
"  c #040404",
". c gray3",
"X c #0C0C0C",
"o c #111111",
"O c #161616",
"+ c gray11",
"@ c #333300",
"# c #330033",
"$ c #222222",
"% c gray16",
"& c gray20",
"* c #393939",
"= c #666600",
"- c #666633",
"; c #333366",
": c gray26",
"> c gray30",
", c #555555",
"< c #5F5F5F",
"1 c gray40",
"2 c #777777",
"3 c #996633",
"4 c #996666",
"5 c #808000",
"6 c #999900",
"7 c #999933",
"8 c #CC9900",
"9 c #CC9933",
"0 c #CCCC00",
"q c #CCCC33",
"w c #FFCC33",
"e c #999966",
"r c #CC9966",
"t c #CCCC66",
"y c #FFCC66",
"u c #333399",
"i c #336699",
"p c #666699",
"a c #3366CC",
"s c #9966CC",
"d c #3399CC",
"f c #6699CC",
"g c #808080",
"h c #868686",
"j c gray59",
"k c gray60",
"l c #ADA990",
"z c #A0A0A4",
"x c #B2B2B2",
"c c #CCCC99",
"v c #FFCC99",
"b c #9999CC",
"n c #C0C0C0",
"m c None",
/* pixels */
"mmmmmmmmmmmmmmmmmmmmmmmmmmmmmmmm",
"mmmmmmmmmmmmmmmmmmmmmmmmmmmmmmmm",
"mmmmmmmmmmmmmmmmmmmmmmmmmmmmmmmm",
"mmmmmmmmmmmmmmmmmmmmmmmmmmmmmmmm",
"mmmmmmmmmmmmmmmmmmmmmmmmmmmmmmmm",
"mmmmmmmmmmmmmmmmmmmmmmmmmmmmmmmm",
"mmmmmmmmmmmmmmmmmmmmmmmmmmmmmmmm",
"mmmmmmp>;;;;;;;;;;;;upmmmmmmmmmm",
"mmmmffg;dddddiuui;;;uiummmmmmmmm",
"mmmhff1;;;dfffdi&;;;;iiummmmmmmm",
"mmmhgf,&;;iii;####&;;;ai;xlzmmmm",
"mm399e,:<<<1222pppppppppp1egmmmm",
"m4bbb7zkkkjjjjjjjjjjjjbbfffbmmmm",
"mklxxllleeeeereeeeeegeeeeeehgmmm",
"3nxxz2tqtr7--ertt---e-:-772::1pm",
"4e777+7qlnjnzjplgOOO,OO+7,><,2<m",
"*ee77+-ttccltertt-**7**-875737,m",
"*7777:,qqtyvyttttetttttleq7777-m",
":5377:%qqwyyyyyq9shnnhxje675==-m",
"2-777<*6qq,+ 5w-o$&%$+++X=5..+-m",
"j-e73h:=qq7--3q9XXXXXXX.@75=55-m",
",&--31:@0yyyyyqq5----=====9777-m",
"*+..,:,o@@>>:*%+OO    OO+$.    m",
"m&%$$&O..             ..Xoo    m",
"mmmmmm%$$%%%%$$$$%%%%%%%&&&&**mm",
"mmmmmmmmmmmmmmmmmmmmmmmmmmmmmmmm",
"mmmmmmmmmmmmmmmmmmmmmmmmmmmmmmmm",
"mmmmmmmmmmmmmmmmmmmmmmmmmmmmmmmm",
"mmmmmmmmmmmmmmmmmmmmmmmmmmmmmmmm",
"mmmmmmmmmmmmmmmmmmmmmmmmmmmmmmmm",
"mmmmmmmmmmmmmmmmmmmmmmmmmmmmmmmm",
"mmmmmmmmmmmmmmmmmmmmmmmmmmmmmmmm"
};
